# xmcd
#
# Track frame offsets:
#	150
#	10655
#	23500
#	39382
#	49102
#	60716
#	73111
#	81935
#	97609
#	113827
#	128672
#	141697
#	155721
#	169577
#	184616
#
# Disc length: 2668 seconds
#
# Revision: 2
# Processed by: cddbd v1.5.1PL2 Copyright (c) Steve Scherf et al.
# Submitted via: audiograbber 1.83.01
#
DISCID=be0a6a0f
DTITLE=Pavel Novák - '64 - dnes
DYEAR=1999
DGENRE=
TTITLE0=Pihovata divka
TTITLE1=Vyznani
TTITLE2=Chci zapomenout (I Can't Stop Loving You]
TTITLE3=Malinka (Little Girl)
TTITLE4=Cekam na tve pozvan
TTITLE5=Nadherna laska (Che sara)
TTITLE6=Mistr Karel
TTITLE7=Podivny spac
TTITLE8=Morava
TTITLE9=Objimani ve vetru
TTITLE10=Osklivky
TTITLE11=Hvezdy
TTITLE12=Vydejme se cestami
TTITLE13=Ja ty on
TTITLE14=Stedry den
EXTD=
EXTT0=
EXTT1=
EXTT2=
EXTT3=
EXTT4=
EXTT5=
EXTT6=
EXTT7=
EXTT8=
EXTT9=
EXTT10=
EXTT11=
EXTT12=
EXTT13=
EXTT14=
PLAYORDER=
